# 3ds Max Wavefront OBJ Exporter v0.99 - (c)2007 guruware
# File Created: 04.05.2024 00:15:17

mtllib braizqpat.mtl

#
# object brazo_izquierdo
#

v  -0.0875 0.2045 0.2572
v  -0.0264 0.1496 0.1253
v  -0.1696 0.1078 0.2614
v  -0.1340 0.0655 0.3718
v  -0.2404 -0.0457 0.3590
v  -0.1992 -0.1054 0.3893
v  -0.3284 -0.2017 0.3634
v  -0.3022 -0.2425 0.3492
v  -0.4447 -0.3042 0.3217
v  -0.4249 -0.3367 0.2796
v  -0.4701 -0.3204 0.2798
v  0.0302 0.0628 0.1028
v  -0.1333 0.0492 0.1459
v  -0.2740 -0.0019 0.2668
v  -0.3573 -0.1598 0.3411
v  -0.4609 -0.2803 0.3223
v  -0.4352 -0.3240 0.2370
v  -0.4492 -0.3038 0.2268
v  -0.3057 -0.2487 0.2028
v  -0.3335 -0.2089 0.1907
v  -0.1658 -0.1697 0.1725
v  -0.2041 -0.1138 0.1562
v  -0.0555 -0.1030 0.1492
v  -0.0894 -0.0199 0.1290
v  0.0678 -0.0263 0.1167
v  -0.2859 -0.2730 0.2754
v  -0.1391 -0.2029 0.2706
v  -0.0377 -0.1496 0.2671
v  0.0467 -0.1049 0.2642
v  -0.1622 -0.1620 0.3665
v  -0.0466 -0.1010 0.3753
v  0.0730 -0.0319 0.3841
v  -0.3823 -0.1313 0.2727
v  -0.4734 -0.2645 0.2782
v  -0.4633 -0.2824 0.2334
v  -0.0293 0.1675 0.3795
v  0.0311 0.0843 0.4382
v  -0.0826 -0.0091 0.4081
v  -0.3615 -0.1667 0.2012
v  -0.2438 -0.0535 0.1703
# 40 vertices

vn -0.9437 0.3306 0.0160
vn -0.6693 0.2708 -0.6919
vn -0.7445 0.6673 -0.0228
vn -0.5392 0.4305 0.7238
vn -0.5464 0.4474 0.7080
vn -0.1562 -0.0565 0.9861
vn -0.2501 -0.0319 0.9677
vn 0.1972 -0.6264 0.7541
vn -0.2322 -0.5833 0.7783
vn 0.0797 -0.9714 0.2237
vn -0.8099 -0.5864 0.0115
vn -0.4540 -0.1042 -0.8849
vn -0.5157 0.3662 -0.7745
vn -0.7458 0.6661 -0.0015
vn -0.6018 0.4579 0.6543
vn -0.7366 0.1149 0.6665
vn -0.0371 -0.8695 -0.4926
vn -0.4182 -0.4122 -0.8095
vn 0.2064 -0.6803 -0.7033
vn -0.1979 -0.1495 -0.9688
vn 0.2130 -0.6522 -0.7275
vn -0.1729 -0.1334 -0.9759
vn 0.2108 -0.6389 -0.7398
vn -0.1850 -0.0970 -0.9779
vn -0.5987 -0.4047 -0.6912
vn 0.4283 -0.9032 0.0286
vn 0.4421 -0.8968 0.0187
vn 0.4656 -0.8850 0.0038
vn 0.4580 -0.8805 -0.1220
vn -0.2914 -0.4665 -0.8351
vn 0.2741 -0.6324 0.7246
vn 0.3256 -0.6794 0.6576
vn 0.0711 -0.6972 0.7134
vn -0.7925 0.6098 -0.0130
vn -0.9411 0.3290 -0.0777
vn -0.7603 0.0419 -0.6483
vn -0.7746 0.1455 0.6155
vn -0.5985 -0.1287 0.7907
vn -0.0645 -0.1782 0.9819
vn -0.4084 -0.6299 0.6607
vn -0.5842 0.3209 -0.7455
vn -0.5351 0.3431 -0.7720
# 42 vertex normals

vt 0.7567 0.2112 0.0000
vt 0.7771 0.2725 0.0000
vt 0.8009 0.2012 0.0000
vt 0.7971 0.1521 0.0000
vt 0.8459 0.1502 0.0000
vt 0.8520 0.1185 0.0000
vt 0.9007 0.1299 0.0000
vt 0.9117 0.1105 0.0000
vt 0.9502 0.1425 0.0000
vt 0.9698 0.1335 0.0000
vt 0.9709 0.1650 0.0000
vt 0.8041 0.3092 0.0000
vt 0.8203 0.2495 0.0000
vt 0.8484 0.1902 0.0000
vt 0.8973 0.1509 0.0000
vt 0.9475 0.1522 0.0000
vt 0.9661 0.1934 0.0000
vt 0.9587 0.1885 0.0000
vt 0.9408 0.2346 0.0000
vt 0.9230 0.2216 0.0000
vt 0.9056 0.2737 0.0000
vt 0.8828 0.2532 0.0000
vt 0.8723 0.3030 0.0000
vt 0.8426 0.2793 0.0000
vt 0.8337 0.3355 0.0000
vt 0.9843 0.1921 0.0000
vt 0.9715 0.2476 0.0000
vt 0.9389 0.2984 0.0000
vt 0.9095 0.3321 0.0000
vt 0.8872 0.3582 0.0000
vt 0.9353 0.0871 0.0000
vt 0.8647 0.0895 0.0000
vt 0.8847 0.0531 0.0000
vt 0.8237 0.0744 0.0000
vt 0.8441 0.0346 0.0000
vt 0.7798 0.0580 0.0000
vt 0.8130 0.0205 0.0000
vt 0.8988 0.1786 0.0000
vt 0.9473 0.1686 0.0000
vt 0.9522 0.1827 0.0000
vt 0.7486 0.1516 0.0000
vt 0.7557 0.1025 0.0000
vt 0.8046 0.1114 0.0000
vt 0.9099 0.2059 0.0000
vt 0.8640 0.2289 0.0000
# 45 texture coords

o brazo_izquierdo
g brazo_izquierdo
usemtl 02___Default
s 1
f 1/1/1 2/2/2 3/3/3 
f 1/1/1 3/3/3 4/4/4 
f 4/4/4 3/3/3 5/5/5 
f 4/4/4 5/5/5 6/6/6 
f 6/6/6 5/5/5 7/7/7 
f 6/6/6 7/7/7 8/8/8 
f 8/8/8 7/7/7 9/9/9 
f 8/8/8 9/9/9 10/10/10 
f 10/10/10 9/9/9 11/11/11 
f 2/2/2 12/12/12 13/13/13 
f 2/2/2 13/13/13 3/3/3 
f 3/3/3 13/13/13 14/14/14 
f 3/3/3 14/14/14 5/5/5 
f 5/5/5 14/14/14 15/15/15 
f 5/5/5 15/15/15 7/7/7 
f 7/7/7 15/15/15 16/16/16 
f 7/7/7 16/16/16 9/9/9 
f 9/9/9 16/16/16 11/11/11 
f 17/17/17 11/11/11 18/18/18 
f 17/17/17 18/18/18 19/19/19 
f 19/19/19 18/18/18 20/20/20 
f 19/19/19 20/20/20 21/21/21 
f 21/21/21 20/20/20 22/22/22 
f 21/21/21 22/22/22 23/23/23 
f 23/23/23 22/22/22 24/24/24 
f 23/23/23 24/24/24 25/25/25 
f 25/25/25 24/24/24 12/12/12 
f 10/26/10 11/11/11 17/17/17 
f 10/26/10 17/17/17 26/27/26 
f 26/27/26 17/17/17 19/19/19 
f 26/27/26 19/19/19 27/28/27 
f 27/28/27 19/19/19 21/21/21 
f 27/28/27 21/21/21 28/29/28 
f 28/29/28 21/21/21 23/23/23 
f 28/29/28 23/23/23 29/30/29 
f 29/30/29 23/23/23 25/25/30 
f 8/8/8 10/10/10 26/31/26 
f 8/8/8 26/31/26 30/32/31 
f 30/32/31 26/31/26 27/33/27 
f 30/32/31 27/33/27 31/34/32 
f 31/34/32 27/33/27 28/35/28 
f 31/34/32 28/35/28 32/36/33 
f 32/36/33 28/35/28 29/37/29 
f 15/15/15 14/14/14 33/38/34 
f 15/15/15 33/38/34 16/16/16 
f 16/16/16 33/38/34 34/39/35 
f 16/16/16 34/39/35 11/11/11 
f 11/11/11 34/39/35 35/40/36 
f 11/11/11 35/40/36 18/18/18 
f 18/18/18 35/40/36 20/20/20 
f 36/41/37 1/1/1 4/4/4 
f 36/41/37 4/4/4 37/42/38 
f 37/42/38 4/4/4 38/43/39 
f 37/42/38 38/43/39 32/36/40 
f 32/36/40 38/43/39 31/34/32 
f 20/20/20 35/40/36 39/44/41 
f 20/20/20 39/44/41 22/22/22 
f 22/22/22 39/44/41 40/45/42 
f 22/22/22 40/45/42 24/24/24 
f 24/24/24 40/45/42 13/13/13 
f 24/24/24 13/13/13 12/12/12 
f 30/32/31 31/34/32 38/43/39 
f 30/32/31 38/43/39 6/6/6 
f 6/6/6 38/43/39 4/4/4 
f 14/14/14 13/13/13 40/45/42 
f 14/14/14 40/45/42 33/38/34 
f 33/38/34 40/45/42 39/44/41 
f 33/38/34 39/44/41 34/39/35 
f 34/39/35 39/44/41 35/40/36 
f 30/32/31 6/6/6 8/8/8 
# 70 faces

