# 3ds Max Wavefront OBJ Exporter v0.99 - (c)2007 guruware
# File Created: 15.04.2024 21:37:51

mtllib cola botemovil.mtl

#
# object Object
#

v  0.2885 0.0748 1.8234
v  0.2293 -0.0137 1.8232
v  0.2857 -0.0633 0.1614
v  0.3621 0.0511 0.1617
v  0.1409 -0.0728 1.8230
v  0.1714 -0.1397 0.1611
v  0.0365 -0.0936 1.8229
v  0.0365 -0.1665 0.1611
v  -0.0678 -0.0728 1.8230
v  -0.0983 -0.1397 0.1611
v  -0.1563 -0.0137 1.8232
v  -0.2127 -0.0633 0.1614
v  -0.2154 0.0748 1.8234
v  -0.2890 0.0511 0.1617
v  -0.2362 0.1791 1.8238
v  -0.3159 0.1859 0.1621
v  -0.2154 0.2835 1.8241
v  -0.2890 0.3208 0.1625
v  -0.1563 0.3719 1.8243
v  -0.2127 0.4351 0.1629
v  -0.0678 0.4311 1.8245
v  -0.0983 0.5115 0.1631
v  0.0365 0.4518 1.8246
v  0.0365 0.5383 0.1632
v  0.1409 0.4311 1.8245
v  0.1714 0.5115 0.1631
v  0.2293 0.3719 1.8243
v  0.2857 0.4351 0.1629
v  0.2885 0.2835 1.8241
v  0.3621 0.3208 0.1625
v  0.3092 0.1791 1.8238
v  0.3889 0.1859 0.1621
v  0.1583 0.0570 1.9380
v  0.1957 0.1128 1.9382
v  0.0365 0.1788 1.9384
v  0.1024 0.0196 1.9379
v  0.0365 0.0065 1.9379
v  -0.0294 0.0196 1.9379
v  -0.0853 0.0570 1.9380
v  -0.1226 0.1128 1.9382
v  -0.1358 0.1788 1.9384
v  -0.1226 0.2447 1.9386
v  -0.0853 0.3006 1.9388
v  -0.0294 0.3379 1.9389
v  0.0365 0.3510 1.9389
v  0.1024 0.3379 1.9389
v  0.1583 0.3006 1.9388
v  0.1957 0.2447 1.9386
v  0.2088 0.1788 1.9384
v  0.2414 0.1015 0.0204
v  0.1933 0.0295 0.0202
v  0.0365 0.1863 0.0207
v  0.1214 -0.0186 0.0201
v  0.0365 -0.0354 0.0200
v  -0.0483 -0.0186 0.0201
v  -0.1203 0.0295 0.0202
v  -0.1684 0.1015 0.0204
v  -0.1853 0.1863 0.0207
v  -0.1684 0.2712 0.0209
v  -0.1203 0.3431 0.0211
v  -0.0483 0.3912 0.0213
v  0.0365 0.4081 0.0213
v  0.1214 0.3912 0.0213
v  0.1933 0.3431 0.0211
v  0.2414 0.2712 0.0209
v  0.2583 0.1863 0.0207
v  0.2316 -1.9112 0.1901
v  -0.1539 -1.9112 0.1901
v  -0.1539 -1.9112 0.0483
v  0.2316 -1.9112 0.0483
v  0.5336 -1.1863 0.0483
v  -0.4558 -1.1863 0.0483
v  -0.0925 0.1877 0.0684
v  0.1702 0.1877 0.0684
v  0.1702 0.1877 0.1701
v  -0.0925 0.1877 0.1701
v  -0.4558 -1.1863 0.1901
v  0.5336 -1.1863 0.1901
v  -0.4558 -1.4683 0.1901
v  0.5336 -1.4683 0.1901
v  -0.4558 -1.4683 0.0483
v  0.5336 -1.4683 0.0483
v  -0.3765 -1.7297 0.1901
v  0.4542 -1.7297 0.1901
v  -0.3765 -1.7297 0.0483
v  0.4542 -1.7297 0.0483
v  1.7601 1.4040 0.1901
v  1.9529 1.0702 0.1901
v  1.9529 1.0702 0.0483
v  1.7601 1.4040 0.0483
v  0.9814 1.3031 0.0483
v  1.4761 0.4462 0.0483
v  0.1046 0.0739 0.0684
v  -0.0268 0.3015 0.0684
v  -0.0268 0.3015 0.1701
v  0.1046 0.0739 0.1701
v  1.4761 0.4462 0.1901
v  0.9814 1.3031 0.1901
v  1.7204 0.5873 0.1901
v  1.2257 1.4441 0.1901
v  1.7204 0.5873 0.0483
v  1.2257 1.4441 0.0483
v  1.9070 0.7866 0.1901
v  1.4916 1.5061 0.1901
v  1.9070 0.7866 0.0483
v  1.4916 1.5061 0.0483
v  -1.8752 1.0702 0.1901
v  -1.6824 1.4040 0.1901
v  -1.6824 1.4040 0.0483
v  -1.8752 1.0702 0.0483
v  -1.3984 0.4462 0.0483
v  -0.9037 1.3031 0.0483
v  0.1046 0.3015 0.0684
v  -0.0268 0.0739 0.0684
v  -0.0268 0.0739 0.1701
v  0.1046 0.3015 0.1701
v  -0.9037 1.3031 0.1901
v  -1.3984 0.4462 0.1901
v  -1.1479 1.4441 0.1901
v  -1.6426 0.5873 0.1901
v  -1.1479 1.4441 0.0483
v  -1.6426 0.5873 0.0483
v  -1.4139 1.5061 0.1901
v  -1.8293 0.7866 0.1901
v  -1.4139 1.5061 0.0483
v  -1.8293 0.7866 0.0483
# 126 vertices

vn 0.9207 -0.3817 0.0817
vn 0.7046 -0.7050 0.0803
vn 0.7071 -0.7069 -0.0201
vn 0.9238 -0.3825 -0.0188
vn 0.3813 -0.9210 0.0795
vn 0.3827 -0.9236 -0.0210
vn 0.0000 -0.9969 0.0792
vn 0.0000 -0.9998 -0.0213
vn -0.3813 -0.9210 0.0795
vn -0.3827 -0.9236 -0.0210
vn -0.7046 -0.7050 0.0803
vn -0.7071 -0.7069 -0.0201
vn -0.9207 -0.3817 0.0817
vn -0.9238 -0.3825 -0.0188
vn -0.9965 -0.0004 0.0832
vn -0.9999 0.0002 -0.0173
vn -0.9207 0.3810 0.0847
vn -0.9237 0.3828 -0.0158
vn -0.7047 0.7043 0.0860
vn -0.7069 0.7071 -0.0145
vn -0.3814 0.9203 0.0869
vn -0.3826 0.9238 -0.0136
vn 0.0000 0.9962 0.0872
vn 0.0000 0.9999 -0.0133
vn 0.3814 0.9203 0.0869
vn 0.3826 0.9238 -0.0136
vn 0.7047 0.7043 0.0860
vn 0.7069 0.7071 -0.0145
vn 0.9207 0.3810 0.0847
vn 0.9237 0.3828 -0.0158
vn 0.9965 -0.0004 0.0832
vn 0.9999 0.0002 -0.0173
vn 0.4216 -0.4240 0.8015
vn 0.5509 -0.2306 0.8021
vn 0.0000 -0.0030 1.0000
vn 0.2282 -0.5533 0.8011
vn 0.0000 -0.5987 0.8010
vn -0.2282 -0.5533 0.8011
vn -0.4216 -0.4240 0.8015
vn -0.5509 -0.2306 0.8021
vn -0.5963 -0.0024 0.8028
vn -0.5509 0.2258 0.8035
vn -0.4216 0.4192 0.8040
vn -0.2282 0.5485 0.8044
vn 0.0000 0.5939 0.8045
vn 0.2282 0.5485 0.8044
vn 0.4216 0.4192 0.8040
vn 0.5509 0.2258 0.8034
vn 0.5963 -0.0024 0.8028
vn 0.5340 -0.2187 -0.8167
vn 0.4087 -0.4062 -0.8173
vn 0.0000 0.0030 -1.0000
vn 0.2212 -0.5315 -0.8177
vn 0.0000 -0.5755 -0.8178
vn -0.2212 -0.5315 -0.8177
vn -0.4087 -0.4062 -0.8173
vn -0.5340 -0.2187 -0.8167
vn -0.5780 0.0024 -0.8161
vn -0.5340 0.2236 -0.8154
vn -0.4087 0.4111 -0.8148
vn -0.2212 0.5364 -0.8145
vn 0.0000 0.5804 -0.8143
vn 0.2212 0.5364 -0.8145
vn 0.4087 0.4111 -0.8148
vn 0.5340 0.2236 -0.8154
vn 0.5780 0.0024 -0.8161
vn 0.2860 -0.9582 -0.0000
vn -0.2860 -0.9582 -0.0000
vn 0.0000 0.0146 -0.9999
vn 0.0000 0.0146 0.9999
vn -0.9780 0.2084 -0.0000
vn -0.9668 0.2556 -0.0000
vn 0.9668 0.2556 -0.0000
vn 0.9780 0.2084 -0.0000
vn 0.0000 0.0000 1.0000
vn -0.9895 -0.1445 -0.0000
vn 0.0000 0.0000 -1.0000
vn 0.9895 -0.1445 -0.0000
vn -0.8262 -0.5634 -0.0000
vn 0.8262 -0.5634 -0.0000
vn 0.6869 0.7268 -0.0000
vn 0.9729 0.2314 -0.0000
vn -0.0126 -0.0073 -0.9999
vn -0.0126 -0.0073 0.9999
vn 0.3086 -0.9512 -0.0000
vn 0.2620 -0.9651 -0.0000
vn -0.7048 0.7094 -0.0000
vn -0.6695 0.7428 -0.0000
vn 0.6199 -0.7847 -0.0000
vn -0.3697 0.9292 -0.0000
vn 0.9010 -0.4338 -0.0000
vn 0.0748 0.9972 -0.0000
vn -0.9729 0.2314 -0.0000
vn -0.6869 0.7268 -0.0000
vn 0.0126 -0.0073 -0.9999
vn 0.0126 -0.0073 0.9999
vn 0.6695 0.7428 -0.0000
vn 0.7048 0.7094 -0.0000
vn -0.2620 -0.9651 -0.0000
vn -0.3086 -0.9512 -0.0000
vn 0.3697 0.9292 -0.0000
vn -0.6199 -0.7847 -0.0000
vn -0.0748 0.9972 -0.0000
vn -0.9010 -0.4338 -0.0000
# 104 vertex normals

vt 0.3262 0.8560 0.0000
vt 0.3292 0.8560 0.0000
vt 0.3290 0.8949 0.0000
vt 0.3259 0.8949 0.0000
vt 0.3323 0.8560 0.0000
vt 0.3321 0.8949 0.0000
vt 0.3353 0.8560 0.0000
vt 0.3353 0.8949 0.0000
vt 0.3383 0.8560 0.0000
vt 0.3384 0.8949 0.0000
vt 0.2885 0.8560 0.0000
vt 0.2915 0.8560 0.0000
vt 0.2918 0.8949 0.0000
vt 0.2887 0.8949 0.0000
vt 0.2946 0.8560 0.0000
vt 0.2949 0.8949 0.0000
vt 0.2977 0.8559 0.0000
vt 0.2980 0.8949 0.0000
vt 0.3008 0.8559 0.0000
vt 0.3011 0.8949 0.0000
vt 0.3040 0.8559 0.0000
vt 0.3042 0.8948 0.0000
vt 0.3072 0.8559 0.0000
vt 0.3073 0.8948 0.0000
vt 0.3104 0.8559 0.0000
vt 0.3104 0.8948 0.0000
vt 0.3136 0.8559 0.0000
vt 0.3135 0.8948 0.0000
vt 0.3168 0.8559 0.0000
vt 0.3166 0.8948 0.0000
vt 0.3200 0.8559 0.0000
vt 0.3197 0.8949 0.0000
vt 0.3231 0.8559 0.0000
vt 0.3228 0.8949 0.0000
vt 0.5318 0.0597 0.0000
vt 0.5329 0.0590 0.0000
vt 0.5342 0.0621 0.0000
vt 0.5311 0.0608 0.0000
vt 0.5308 0.0621 0.0000
vt 0.5311 0.0634 0.0000
vt 0.5318 0.0645 0.0000
vt 0.5329 0.0652 0.0000
vt 0.5342 0.0655 0.0000
vt 0.5355 0.0652 0.0000
vt 0.5366 0.0645 0.0000
vt 0.5373 0.0634 0.0000
vt 0.5376 0.0621 0.0000
vt 0.5373 0.0608 0.0000
vt 0.5366 0.0597 0.0000
vt 0.5355 0.0590 0.0000
vt 0.5342 0.0588 0.0000
vt 0.2648 0.0411 0.0000
vt 0.2662 0.0420 0.0000
vt 0.2631 0.0451 0.0000
vt 0.2672 0.0434 0.0000
vt 0.2675 0.0451 0.0000
vt 0.2672 0.0468 0.0000
vt 0.2662 0.0482 0.0000
vt 0.2648 0.0491 0.0000
vt 0.2631 0.0494 0.0000
vt 0.2615 0.0491 0.0000
vt 0.2601 0.0482 0.0000
vt 0.2591 0.0468 0.0000
vt 0.2588 0.0451 0.0000
vt 0.2591 0.0434 0.0000
vt 0.2601 0.0420 0.0000
vt 0.2615 0.0411 0.0000
vt 0.2631 0.0408 0.0000
vt 0.3264 0.8533 0.0000
vt 0.3294 0.8533 0.0000
vt 0.3323 0.8533 0.0000
vt 0.3353 0.8533 0.0000
vt 0.3382 0.8533 0.0000
vt 0.2885 0.8533 0.0000
vt 0.2914 0.8533 0.0000
vt 0.2944 0.8533 0.0000
vt 0.2975 0.8533 0.0000
vt 0.3006 0.8532 0.0000
vt 0.3038 0.8532 0.0000
vt 0.3071 0.8532 0.0000
vt 0.3104 0.8532 0.0000
vt 0.3137 0.8532 0.0000
vt 0.3170 0.8532 0.0000
vt 0.3202 0.8532 0.0000
vt 0.3233 0.8533 0.0000
vt 0.3290 0.8982 0.0000
vt 0.3258 0.8982 0.0000
vt 0.3321 0.8982 0.0000
vt 0.3353 0.8982 0.0000
vt 0.3384 0.8982 0.0000
vt 0.2918 0.8982 0.0000
vt 0.2887 0.8982 0.0000
vt 0.2950 0.8982 0.0000
vt 0.2981 0.8982 0.0000
vt 0.3012 0.8982 0.0000
vt 0.3043 0.8982 0.0000
vt 0.3073 0.8982 0.0000
vt 0.3104 0.8982 0.0000
vt 0.3135 0.8982 0.0000
vt 0.3165 0.8982 0.0000
vt 0.3196 0.8982 0.0000
vt 0.3227 0.8982 0.0000
vt 0.6013 0.9329 0.0000
vt 0.6166 0.9329 0.0000
vt 0.6166 0.9369 0.0000
vt 0.6013 0.9369 0.0000
vt 0.7559 0.9336 0.0000
vt 0.7891 0.9336 0.0000
vt 0.7787 0.9798 0.0000
vt 0.7664 0.9798 0.0000
vt 0.8189 0.9063 0.0000
vt 0.8312 0.9063 0.0000
vt 0.8416 0.9524 0.0000
vt 0.8084 0.9524 0.0000
vt 0.6456 0.9329 0.0000
vt 0.7004 0.9334 0.0000
vt 0.7004 0.9363 0.0000
vt 0.6456 0.9369 0.0000
vt 0.6309 0.9546 0.0000
vt 0.6857 0.9540 0.0000
vt 0.6857 0.9580 0.0000
vt 0.6309 0.9574 0.0000
vt 0.8416 0.9619 0.0000
vt 0.8084 0.9619 0.0000
vt 0.6343 0.9369 0.0000
vt 0.6343 0.9329 0.0000
vt 0.7559 0.9242 0.0000
vt 0.7891 0.9242 0.0000
vt 0.6970 0.9540 0.0000
vt 0.6970 0.9580 0.0000
vt 0.8390 0.9707 0.0000
vt 0.8111 0.9707 0.0000
vt 0.6239 0.9369 0.0000
vt 0.6239 0.9329 0.0000
vt 0.7586 0.9154 0.0000
vt 0.7865 0.9154 0.0000
vt 0.7074 0.9540 0.0000
vt 0.7074 0.9580 0.0000
vt 0.8315 0.9768 0.0000
vt 0.8185 0.9768 0.0000
vt 0.7660 0.9093 0.0000
vt 0.7790 0.9093 0.0000
vt 0.7146 0.9540 0.0000
vt 0.7146 0.9580 0.0000
# 144 texture coords

o Object
g Object
usemtl botemovil_01___Default
s off
f 1/1/1 2/2/2 3/3/3 
f 3/3/3 4/4/4 1/1/1 
f 2/2/2 5/5/5 6/6/6 
f 6/6/6 3/3/3 2/2/2 
f 5/5/5 7/7/7 8/8/8 
f 8/8/8 6/6/6 5/5/5 
f 7/7/7 9/9/9 10/10/10 
f 10/10/10 8/8/8 7/7/7 
f 9/11/9 11/12/11 12/13/12 
f 12/13/12 10/14/10 9/11/9 
f 11/12/11 13/15/13 14/16/14 
f 14/16/14 12/13/12 11/12/11 
f 13/15/13 15/17/15 16/18/16 
f 16/18/16 14/16/14 13/15/13 
f 15/17/15 17/19/17 18/20/18 
f 18/20/18 16/18/16 15/17/15 
f 17/19/17 19/21/19 20/22/20 
f 20/22/20 18/20/18 17/19/17 
f 19/21/19 21/23/21 22/24/22 
f 22/24/22 20/22/20 19/21/19 
f 21/23/21 23/25/23 24/26/24 
f 24/26/24 22/24/22 21/23/21 
f 23/25/23 25/27/25 26/28/26 
f 26/28/26 24/26/24 23/25/23 
f 25/27/25 27/29/27 28/30/28 
f 28/30/28 26/28/26 25/27/25 
f 27/29/27 29/31/29 30/32/30 
f 30/32/30 28/30/28 27/29/27 
f 29/31/29 31/33/31 32/34/32 
f 32/34/32 30/32/30 29/31/29 
f 31/33/31 1/1/1 4/4/4 
f 4/4/4 32/34/32 31/33/31 
f 33/35/33 34/36/34 35/37/35 
f 36/38/36 33/35/33 35/37/35 
f 37/39/37 36/38/36 35/37/35 
f 38/40/38 37/39/37 35/37/35 
f 39/41/39 38/40/38 35/37/35 
f 40/42/40 39/41/39 35/37/35 
f 41/43/41 40/42/40 35/37/35 
f 42/44/42 41/43/41 35/37/35 
f 43/45/43 42/44/42 35/37/35 
f 44/46/44 43/45/43 35/37/35 
f 45/47/45 44/46/44 35/37/35 
f 46/48/46 45/47/45 35/37/35 
f 47/49/47 46/48/46 35/37/35 
f 48/50/48 47/49/47 35/37/35 
f 49/51/49 48/50/48 35/37/35 
f 34/36/34 49/51/49 35/37/35 
f 50/52/50 51/53/51 52/54/52 
f 51/53/51 53/55/53 52/54/52 
f 53/55/53 54/56/54 52/54/52 
f 54/56/54 55/57/55 52/54/52 
f 55/57/55 56/58/56 52/54/52 
f 56/58/56 57/59/57 52/54/52 
f 57/59/57 58/60/58 52/54/52 
f 58/60/58 59/61/59 52/54/52 
f 59/61/59 60/62/60 52/54/52 
f 60/62/60 61/63/61 52/54/52 
f 61/63/61 62/64/62 52/54/52 
f 62/64/62 63/65/63 52/54/52 
f 63/65/63 64/66/64 52/54/52 
f 64/66/64 65/67/65 52/54/52 
f 65/67/65 66/68/66 52/54/52 
f 66/68/66 50/52/50 52/54/52 
f 2/2/2 1/1/1 34/69/34 
f 34/69/34 33/70/33 2/2/2 
f 5/5/5 2/2/2 33/70/33 
f 33/70/33 36/71/36 5/5/5 
f 7/7/7 5/5/5 36/71/36 
f 36/71/36 37/72/37 7/7/7 
f 9/9/9 7/7/7 37/72/37 
f 37/72/37 38/73/38 9/9/9 
f 11/12/11 9/11/9 38/74/38 
f 38/74/38 39/75/39 11/12/11 
f 13/15/13 11/12/11 39/75/39 
f 39/75/39 40/76/40 13/15/13 
f 15/17/15 13/15/13 40/76/40 
f 40/76/40 41/77/41 15/17/15 
f 17/19/17 15/17/15 41/77/41 
f 41/77/41 42/78/42 17/19/17 
f 19/21/19 17/19/17 42/78/42 
f 42/78/42 43/79/43 19/21/19 
f 21/23/21 19/21/19 43/79/43 
f 43/79/43 44/80/44 21/23/21 
f 23/25/23 21/23/21 44/80/44 
f 44/80/44 45/81/45 23/25/23 
f 25/27/25 23/25/23 45/81/45 
f 45/81/45 46/82/46 25/27/25 
f 27/29/27 25/27/25 46/82/46 
f 46/82/46 47/83/47 27/29/27 
f 29/31/29 27/29/27 47/83/47 
f 47/83/47 48/84/48 29/31/29 
f 31/33/31 29/31/29 48/84/48 
f 48/84/48 49/85/49 31/33/31 
f 1/1/1 31/33/31 49/85/49 
f 49/85/49 34/69/34 1/1/1 
f 4/4/4 3/3/3 51/86/51 
f 51/86/51 50/87/50 4/4/4 
f 3/3/3 6/6/6 53/88/53 
f 53/88/53 51/86/51 3/3/3 
f 6/6/6 8/8/8 54/89/54 
f 54/89/54 53/88/53 6/6/6 
f 8/8/8 10/10/10 55/90/55 
f 55/90/55 54/89/54 8/8/8 
f 10/14/10 12/13/12 56/91/56 
f 56/91/56 55/92/55 10/14/10 
f 12/13/12 14/16/14 57/93/57 
f 57/93/57 56/91/56 12/13/12 
f 14/16/14 16/18/16 58/94/58 
f 58/94/58 57/93/57 14/16/14 
f 16/18/16 18/20/18 59/95/59 
f 59/95/59 58/94/58 16/18/16 
f 18/20/18 20/22/20 60/96/60 
f 60/96/60 59/95/59 18/20/18 
f 20/22/20 22/24/22 61/97/61 
f 61/97/61 60/96/60 20/22/20 
f 22/24/22 24/26/24 62/98/62 
f 62/98/62 61/97/61 22/24/22 
f 24/26/24 26/28/26 63/99/63 
f 63/99/63 62/98/62 24/26/24 
f 26/28/26 28/30/28 64/100/64 
f 64/100/64 63/99/63 26/28/26 
f 28/30/28 30/32/30 65/101/65 
f 65/101/65 64/100/64 28/30/28 
f 30/32/30 32/34/32 66/102/66 
f 66/102/66 65/101/65 30/32/30 
f 32/34/32 4/4/4 50/87/50 
f 50/87/50 66/102/66 32/34/32 
f 67/103/67 68/104/68 69/105/68 
f 69/105/68 70/106/67 67/103/67 
f 71/107/69 72/108/69 73/109/69 
f 73/109/69 74/110/69 71/107/69 
f 75/111/70 76/112/70 77/113/70 
f 77/113/70 78/114/70 75/111/70 
f 77/115/71 76/116/72 73/117/72 
f 73/117/72 72/118/71 77/115/71 
f 75/119/73 78/120/74 71/121/74 
f 71/121/74 74/122/73 75/119/73 
f 78/114/75 77/113/75 79/123/75 
f 79/123/75 80/124/75 78/114/75 
f 77/115/71 72/118/71 81/125/76 
f 81/125/76 79/126/76 77/115/71 
f 72/108/77 71/107/77 82/127/77 
f 82/127/77 81/128/77 72/108/77 
f 71/121/74 78/120/74 80/129/78 
f 80/129/78 82/130/78 71/121/74 
f 80/124/75 79/123/75 83/131/75 
f 83/131/75 84/132/75 80/124/75 
f 79/126/76 81/125/76 85/133/79 
f 85/133/79 83/134/79 79/126/76 
f 81/128/77 82/127/77 86/135/77 
f 86/135/77 85/136/77 81/128/77 
f 82/130/78 80/129/78 84/137/80 
f 84/137/80 86/138/80 82/130/78 
f 84/132/75 83/131/75 68/139/75 
f 68/139/75 67/140/75 84/132/75 
f 83/134/79 85/133/79 69/105/68 
f 69/105/68 68/104/68 83/134/79 
f 85/136/77 86/135/77 70/141/77 
f 70/141/77 69/142/77 85/136/77 
f 86/138/80 84/137/80 67/143/67 
f 67/143/67 70/144/67 86/138/80 
f 87/103/81 88/104/82 89/105/82 
f 89/105/82 90/106/81 87/103/81 
f 91/107/83 92/108/83 93/109/83 
f 93/109/83 94/110/83 91/107/83 
f 95/111/84 96/112/84 97/113/84 
f 97/113/84 98/114/84 95/111/84 
f 97/115/85 96/116/86 93/117/86 
f 93/117/86 92/118/85 97/115/85 
f 95/119/87 98/120/88 91/121/88 
f 91/121/88 94/122/87 95/119/87 
f 98/114/75 97/113/75 99/123/75 
f 99/123/75 100/124/75 98/114/75 
f 97/115/85 92/118/85 101/125/89 
f 101/125/89 99/126/89 97/115/85 
f 92/108/77 91/107/77 102/127/77 
f 102/127/77 101/128/77 92/108/77 
f 91/121/88 98/120/88 100/129/90 
f 100/129/90 102/130/90 91/121/88 
f 100/124/75 99/123/75 103/131/75 
f 103/131/75 104/132/75 100/124/75 
f 99/126/89 101/125/89 105/133/91 
f 105/133/91 103/134/91 99/126/89 
f 101/128/77 102/127/77 106/135/77 
f 106/135/77 105/136/77 101/128/77 
f 102/130/90 100/129/90 104/137/92 
f 104/137/92 106/138/92 102/130/90 
f 104/132/75 103/131/75 88/139/75 
f 88/139/75 87/140/75 104/132/75 
f 103/134/91 105/133/91 89/105/82 
f 89/105/82 88/104/82 103/134/91 
f 105/136/77 106/135/77 90/141/77 
f 90/141/77 89/142/77 105/136/77 
f 106/138/92 104/137/92 87/143/81 
f 87/143/81 90/144/81 106/138/92 
f 107/103/93 108/104/94 109/105/94 
f 109/105/94 110/106/93 107/103/93 
f 111/107/95 112/108/95 113/109/95 
f 113/109/95 114/110/95 111/107/95 
f 115/111/96 116/112/96 117/113/96 
f 117/113/96 118/114/96 115/111/96 
f 117/115/97 116/116/98 113/117/98 
f 113/117/98 112/118/97 117/115/97 
f 115/119/99 118/120/100 111/121/100 
f 111/121/100 114/122/99 115/119/99 
f 118/114/75 117/113/75 119/123/75 
f 119/123/75 120/124/75 118/114/75 
f 117/115/97 112/118/97 121/125/101 
f 121/125/101 119/126/101 117/115/97 
f 112/108/77 111/107/77 122/127/77 
f 122/127/77 121/128/77 112/108/77 
f 111/121/100 118/120/100 120/129/102 
f 120/129/102 122/130/102 111/121/100 
f 120/124/75 119/123/75 123/131/75 
f 123/131/75 124/132/75 120/124/75 
f 119/126/101 121/125/101 125/133/103 
f 125/133/103 123/134/103 119/126/101 
f 121/128/77 122/127/77 126/135/77 
f 126/135/77 125/136/77 121/128/77 
f 122/130/102 120/129/102 124/137/104 
f 124/137/104 126/138/104 122/130/102 
f 124/132/75 123/131/75 108/139/75 
f 108/139/75 107/140/75 124/132/75 
f 123/134/103 125/133/103 109/105/94 
f 109/105/94 108/104/94 123/134/103 
f 125/136/77 126/135/77 110/141/77 
f 110/141/77 109/142/77 125/136/77 
f 126/138/104 124/137/104 107/143/93 
f 107/143/93 110/144/93 126/138/104 
# 230 faces

