# 3ds Max Wavefront OBJ Exporter v0.99 - (c)2007 guruware
# File Created: 06.05.2024 18:31:40

mtllib piederpat2.mtl

#
# object pata_izquierda
#

v  0.0247 0.0679 0.1624
v  0.0051 0.0028 0.1929
v  0.0474 0.0366 0.1614
v  0.0714 0.0555 0.0850
v  0.0770 0.0007 0.0839
v  0.0958 0.0007 -0.0156
v  0.0680 -0.0527 0.0830
v  0.0800 -0.0667 -0.0166
v  0.0294 -0.0991 0.0829
v  0.0330 -0.1253 -0.0168
v  -0.0297 -0.0973 0.0842
v  -0.0412 -0.1230 -0.0152
v  -0.0567 -0.0488 0.0856
v  -0.0746 -0.0675 -0.0134
v  -0.0667 0.0053 0.0870
v  -0.0875 0.0065 -0.0117
v  -0.0699 0.0804 -0.0105
v  -0.0532 0.0596 0.0878
v  -0.0403 0.0042 0.1626
v  -0.0318 0.0392 0.1632
v  -0.0128 0.0692 0.1633
v  0.0359 0.1043 0.0868
v  0.0844 0.0699 -0.0141
v  0.0411 0.1314 -0.0118
v  -0.0232 0.1062 0.0881
v  -0.0330 0.1338 -0.0103
v  0.0509 0.0012 0.1606
v  0.0451 -0.0333 0.1601
v  0.0206 -0.0631 0.1600
v  -0.0169 -0.0619 0.1609
v  -0.0340 -0.0307 0.1618
# 31 vertices

vn 0.4031 0.5270 0.7482
vn 0.0034 -0.0115 0.9999
vn 0.7125 0.2004 0.6725
vn 0.8718 0.3319 0.3604
vn 0.9351 -0.0100 0.3543
vn 0.7167 -0.0313 0.6967
vn 0.8818 -0.3242 0.3426
vn 0.6031 -0.3513 0.7162
vn 0.5119 -0.7512 0.4167
vn 0.1806 -0.5873 0.7890
vn -0.3128 -0.8306 0.4608
vn -0.3955 -0.4599 0.7950
vn -0.8494 -0.3694 0.3769
vn -0.7210 -0.2337 0.6523
vn -0.9381 -0.0033 0.3465
vn -0.5871 0.0090 0.8095
vn -0.7067 0.2631 0.6568
vn -0.8484 0.3692 0.3793
vn -0.7543 0.0563 0.6541
vn -0.6697 0.3130 0.6735
vn -0.2214 0.5976 0.7706
vn 0.4404 0.7751 0.4531
vn 0.6241 0.2913 0.7250
vn 0.2137 0.5485 0.8084
vn -0.4107 0.7814 0.4698
vn -0.3680 0.4596 0.8083
vn 0.7645 -0.0584 0.6419
vn 0.6496 -0.3482 0.6758
vn 0.2142 -0.6290 0.7473
vn -0.4318 -0.5111 0.7432
vn -0.7141 -0.2286 0.6616
# 31 vertex normals

vt 0.1436 0.6621 0.0000
vt 0.1185 0.6915 0.0000
vt 0.1299 0.6568 0.0000
vt 0.1401 0.6280 0.0000
vt 0.1177 0.6256 0.0000
vt 0.1173 0.5897 0.0000
vt 0.0957 0.6283 0.0000
vt 0.0827 0.5955 0.0000
vt 0.0731 0.6393 0.0000
vt 0.0496 0.6133 0.0000
vt 0.0581 0.6604 0.0000
vt 0.0280 0.6433 0.0000
vt 0.0542 0.6859 0.0000
vt 0.0210 0.6744 0.0000
vt 0.0508 0.7122 0.0000
vt 0.0173 0.7071 0.0000
vt 0.2160 0.6726 0.0000
vt 0.2201 0.7058 0.0000
vt 0.1866 0.7113 0.0000
vt 0.1828 0.6847 0.0000
vt 0.1548 0.7120 0.0000
vt 0.1554 0.6926 0.0000
vt 0.1533 0.6753 0.0000
vt 0.1630 0.6386 0.0000
vt 0.1525 0.5950 0.0000
vt 0.1859 0.6122 0.0000
vt 0.1785 0.6594 0.0000
vt 0.2083 0.6416 0.0000
vt 0.1180 0.6563 0.0000
vt 0.1065 0.6569 0.0000
vt 0.0929 0.6625 0.0000
vt 0.0835 0.6759 0.0000
vt 0.0817 0.6933 0.0000
vt 0.0825 0.7125 0.0000
# 34 texture coords

o pata_izquierda
g pata_izquierda
usemtl 02___Default
s 1
f 1/1/1 2/2/2 3/3/3 
f 1/1/1 3/3/3 4/4/4 
f 4/4/4 3/3/3 5/5/5 
f 4/4/4 5/5/5 6/6/6 
f 6/6/6 5/5/5 7/7/7 
f 6/6/6 7/7/7 8/8/8 
f 8/8/8 7/7/7 9/9/9 
f 8/8/8 9/9/9 10/10/10 
f 10/10/10 9/9/9 11/11/11 
f 10/10/10 11/11/11 12/12/12 
f 12/12/12 11/11/11 13/13/13 
f 12/12/12 13/13/13 14/14/14 
f 14/14/14 13/13/13 15/15/15 
f 14/14/14 15/15/15 16/16/16 
f 17/17/17 16/18/16 15/19/15 
f 17/17/17 15/19/15 18/20/18 
f 18/20/18 15/19/15 19/21/19 
f 18/20/18 19/21/19 20/22/20 
f 20/22/20 19/21/19 2/2/2 
f 20/22/20 2/2/2 21/23/21 
f 21/23/21 2/2/2 1/1/1 
f 21/23/21 1/1/1 22/24/22 
f 22/24/22 1/1/1 4/4/4 
f 22/24/22 4/4/4 23/25/23 
f 23/25/23 4/4/4 6/6/6 
f 22/24/22 23/25/23 24/26/24 
f 22/24/22 24/26/24 25/27/25 
f 25/27/25 24/26/24 26/28/26 
f 25/27/25 26/28/26 18/20/18 
f 18/20/18 26/28/26 17/17/17 
f 5/5/5 3/3/3 27/29/27 
f 5/5/5 27/29/27 7/7/7 
f 7/7/7 27/29/27 28/30/28 
f 7/7/7 28/30/28 9/9/9 
f 9/9/9 28/30/28 29/31/29 
f 9/9/9 29/31/29 11/11/11 
f 11/11/11 29/31/29 30/32/30 
f 11/11/11 30/32/30 13/13/13 
f 13/13/13 30/32/30 31/33/31 
f 13/13/13 31/33/31 15/15/15 
f 15/15/15 31/33/31 19/34/19 
f 30/32/30 29/31/29 2/2/2 
f 30/32/30 2/2/2 31/33/31 
f 31/33/31 2/2/2 19/34/19 
f 27/29/27 3/3/3 2/2/2 
f 27/29/27 2/2/2 28/30/28 
f 28/30/28 2/2/2 29/31/29 
f 21/23/21 22/24/22 25/27/25 
f 21/23/21 25/27/25 20/22/20 
f 20/22/20 25/27/25 18/20/18 
# 50 faces

