# 3ds Max Wavefront OBJ Exporter v0.99 - (c)2007 guruware
# File Created: 10.04.2024 21:14:45

mtllib cartel.mtl

#
# object Box001
#

v  -30.0323 -10.0512 11.9208
v  -30.0323 -10.0512 -7.2713
v  29.9114 -10.0512 -7.2713
v  29.9114 -10.0512 11.9208
v  -30.0323 9.4469 11.9208
v  29.9114 9.4469 11.9208
v  29.9114 9.4469 -7.2713
v  -30.0323 9.4469 -7.2713
# 8 vertices

vn 0.0000 -1.0000 -0.0000
vn 0.0000 1.0000 -0.0000
vn 1.0000 0.0000 -0.0000
vn 0.0000 0.0000 -1.0000
vn -1.0000 0.0000 -0.0000
# 5 vertex normals

vt 1.0000 0.0000 0.0000
vt 1.0000 1.0000 0.0000
vt 0.0000 1.0000 0.0000
vt 0.0000 0.0000 0.0000
# 4 texture coords

o Box001
g Box001
usemtl 01___Default
s 2
f 1/1/1 2/2/1 3/3/1 
f 3/3/1 4/4/1 1/1/1 
s 4
f 5/4/2 6/1/2 7/2/2 
f 7/2/2 8/3/2 5/4/2 
s 16
f 4/4/3 3/1/3 7/2/3 
f 7/2/3 6/3/3 4/4/3 
s 32
f 3/4/4 2/1/4 8/2/4 
f 8/2/4 7/3/4 3/4/4 
s 64
f 2/4/5 1/1/5 5/2/5 
f 5/2/5 8/3/5 2/4/5 
# 10 faces

#
# object Box002
#

v  -30.4562 -9.4677 2.5390
v  -30.4562 -9.4677 -6.9684
v  30.2341 -9.4677 -6.9684
v  30.2341 -9.4677 2.5390
v  -30.4562 8.7296 2.5390
v  30.2341 8.7296 2.5390
v  30.2341 8.7296 -6.9684
v  -30.4562 8.7296 -6.9684
# 8 vertices

vn 0.0000 -1.0000 -0.0000
vn 0.0000 1.0000 -0.0000
vn 0.0000 0.0000 1.0000
vn 1.0000 0.0000 -0.0000
vn 0.0000 0.0000 -1.0000
vn -1.0000 0.0000 -0.0000
# 6 vertex normals

vt 1.0000 0.0000 0.0000
vt 1.0000 1.0000 0.0000
vt 0.0000 1.0000 0.0000
vt 0.0000 0.0000 0.0000
# 4 texture coords

o Box002
g Box002
usemtl 01___Default
s 2
f 9/5/6 10/6/6 11/7/6 
f 11/7/6 12/8/6 9/5/6 
s 4
f 13/8/7 14/5/7 15/6/7 
f 15/6/7 16/7/7 13/8/7 
s 8
f 9/8/8 12/5/8 14/6/8 
f 14/6/8 13/7/8 9/8/8 
s 16
f 12/8/9 11/5/9 15/6/9 
f 15/6/9 14/7/9 12/8/9 
s 32
f 11/8/10 10/5/10 16/6/10 
f 16/6/10 15/7/10 11/8/10 
s 64
f 10/8/11 9/5/11 13/6/11 
f 13/6/11 16/7/11 10/8/11 
# 12 faces

